<svg width="21" height="19" viewBox="0 0 21 19" fill="none" xmlns="http://www.w3.org/2000/svg">
<path d="M6.5 5.5H5.27734C3.97772 5.5 3.32845 5.5 2.86621 5.76514C2.46058 5.99781 2.14877 6.36535 1.98595 6.80371C1.80053 7.30294 1.90726 7.94333 2.12065 9.22367L2.12109 9.22607L3.05443 14.8261C3.21276 15.776 3.29244 16.2512 3.52947 16.6077C3.73841 16.9219 4.0317 17.1703 4.37598 17.3247C4.76653 17.4999 5.24787 17.5 6.21094 17.5H14.7893C15.7524 17.5 16.2334 17.4999 16.624 17.3247C16.9682 17.1703 17.2618 16.9219 17.4707 16.6077C17.7077 16.2512 17.787 15.776 17.9453 14.8261L18.8786 9.22607L18.8796 9.22217C19.0928 7.94283 19.1995 7.30274 19.0141 6.80371C18.8513 6.36535 18.5402 5.99781 18.1346 5.76514C17.6724 5.5 17.022 5.5 15.7224 5.5H14.5M6.5 5.5H14.5M6.5 5.5C6.5 3.29086 8.29086 1.5 10.5 1.5C12.7091 1.5 14.5 3.29086 14.5 5.5" stroke="white" stroke-width="2" stroke-linecap="round" stroke-linejoin="round"/>
</svg>
